<svg width="512" height="512" viewBox="0 0 512 512" fill="none" xmlns="http://www.w3.org/2000/svg">
<rect width="512" height="512" fill="white"/>
<g style="mix-blend-mode:hard-light">
<path d="M453.065 349.396C452.762 348.527 452.468 347.413 452.348 346.099C452.145 343.88 452.526 342.046 452.883 340.855C452.503 340.389 451.913 339.711 451.116 338.973C448.033 336.118 444.769 334.991 443.787 334.63C437.716 332.395 435.559 328.428 425.882 322.877C425.882 322.877 419.436 319.179 412.228 316.656C406.448 314.633 393.941 311.33 375.634 314.937C375.117 314.518 374.329 313.863 373.415 313.017C369.665 309.544 368.14 306.898 366.452 304.912C363.102 300.975 358.827 299.304 356.482 298.388C350.255 295.956 344.647 296.721 340.694 297.132C335.971 297.622 330.326 299.808 319.005 303.935C317.875 304.347 315.283 305.301 311.693 306.157C308.59 306.897 306.012 307.261 304.379 307.45C304.71 305.811 305.231 303.318 305.931 300.291C307.94 291.609 308.515 291.099 309.028 287.804C309.657 283.763 310.467 277.318 307.216 270.931C304.73 266.048 300.382 263.591 298.259 262.391C290.839 258.199 283.377 259.025 279.604 259.495C274.755 260.099 271.132 261.535 265.786 264.03C257.909 267.707 252.626 270.727 241.506 277.155C231.475 282.953 227.243 285.416 219.674 289.728C215.737 291.971 213.518 293.235 210.701 294.813C187.092 308.035 174.453 313.626 169.429 315.781C165.692 317.384 162.101 318.831 157.547 320.277C151.196 322.294 145.819 323.405 142.225 324.033C141.357 323.609 140.001 322.804 138.912 321.355C138.034 320.188 137.092 318.287 137.16 314.81C137.357 304.756 144.36 293.67 144.36 293.67C147.019 288.81 151.545 282.48 159.204 278.542C161.795 277.211 163.861 276.606 164.747 276.335C178.507 272.129 197.405 259.941 207.319 253.546C240.273 232.291 243.056 224.296 243.873 221.147C244.526 218.63 246.213 212.124 242.832 206.284C240.578 202.392 237.031 200.469 234.689 199.18C232.406 197.924 227.743 195.77 217.731 195.427C211.856 195.226 204.954 195.676 196.418 197.658C180.726 201.301 169.639 207.77 163.143 211.628C155.346 216.259 149.76 220.645 146.242 223.426C140.882 227.665 138.078 230.401 128.647 239.127C124.368 243.086 118.038 248.915 110.171 256.045C108.496 256.279 105.945 256.671 102.867 257.299C92.575 259.399 87.4287 260.449 83.1521 264.247C78.6028 268.286 77.2314 273.466 76.7116 275.539C75.1881 281.613 75.0779 292.235 82.2293 297.186C85.2552 299.281 88.5773 299.708 90.6904 299.767C90.3721 302.173 89.9548 305.764 89.6724 310.136C88.8382 323.048 88.3438 330.702 91.3196 339.087C94.6244 348.402 100.66 354.249 102.804 356.182C112.577 364.995 123.866 366.756 128.113 367.361C145.142 369.789 158.665 362.914 181.995 350.686C195.827 343.437 197.744 340.919 217.66 329.518C231.615 321.529 243.342 315.514 251.135 311.65C250.791 314.29 250.423 318.049 250.395 322.579C250.361 328.11 250.342 331.176 251.431 334.594C253.567 341.297 258.646 345.229 260.24 346.464C271.941 355.524 288.554 351.96 292.245 351.169C296.391 350.279 296.628 349.669 322.644 338.43C326.245 336.874 329.223 335.598 331.231 334.739C333.193 342.135 336.962 345.221 338.856 346.464C346.021 351.166 356.044 348.973 363.21 347.405C371.276 345.64 373.508 343.446 379.299 344.273C383.29 344.842 385.542 346.357 390.6 349.142C390.6 349.142 396.729 352.516 410.066 358.61C416.701 361.642 426.948 364.298 442.525 362.193C445.18 362.379 446.088 361.849 446.402 361.292C446.663 360.828 446.482 360.397 446.823 359.746C447.244 358.938 448.083 358.528 448.733 358.306C448.966 357.087 449.469 356.393 450.006 355.982C451.107 355.138 452.315 355.515 452.856 354.643C453.139 354.184 452.973 353.81 452.893 352.725C452.835 351.938 452.823 350.805 453.065 349.396ZM219.73 200.602C218.761 200.74 218.497 200.483 218.639 199.535C219.608 199.397 219.872 199.655 219.73 200.602ZM224.079 200.209C222.135 197.012 225.361 198.469 227.197 198.642C230.115 198.993 233.548 204.465 228.873 203.29C224.475 198.825 228.825 204.032 226.332 205.029L227.098 207.056L225.21 207.056C226.138 205.279 224.175 204.82 225.554 203.226C225.371 201.866 220.956 201.659 224.079 200.209ZM221.269 198.055C221.506 199.94 218.774 198.791 218.248 197.678C218.248 197.677 221.269 198.055 221.269 198.055ZM212.969 197.471C216.825 197.817 213.104 199.875 214.844 201.368C212.538 200.83 210.891 198.018 211.059 202.111C218.706 201.22 213.479 212.241 212.401 203.944C211.975 203.29 208.122 203.086 208.481 200.17C208.786 197.684 210.674 197.265 212.969 197.471ZM205.584 198.43C205.972 198.577 207.662 197.996 207.256 199.025C206.869 198.878 205.178 199.459 205.584 198.43ZM198.204 199.523C198.816 199.611 199.932 201.869 199.712 202.109C199.014 202.87 198.049 199.953 198.204 199.523ZM146.243 233.548L146.244 232.811C146.609 233.308 147.522 233.667 146.243 233.548ZM148.128 239.096C147.574 239.274 147.806 238.65 147.758 238.36C148.312 238.181 148.08 238.806 148.128 239.096ZM149.643 232.807C149.345 232.759 148.708 232.987 148.891 232.445C149.188 232.492 149.825 232.265 149.643 232.807ZM159.673 253.516C158.516 253.103 159.763 251.598 160.614 253.516C160.316 253.485 159.9 253.597 159.673 253.516ZM161.745 252.041C161.517 252.322 158.868 249.753 157.979 250.546C158.205 247.257 154.402 247.385 152.672 245.567C152.186 244.655 154.579 245.279 154.562 244.279C153.382 244.44 150.953 244.753 152.639 243.032C152.701 242.312 148.526 237.12 151.541 237.987C151.66 237.886 150.45 235.35 153.048 237.438C152.991 238.259 150.36 239.217 153.065 239.309C154.578 239.049 153.425 236.239 153.054 235.204L150.401 235.765C152.036 231.345 155.682 234.054 155.403 237.351C156.803 242.033 161.846 247.272 161.745 252.041ZM153.797 220.406V221.138C151.285 221.299 151.057 219.266 153.797 220.406ZM151.917 222.947C152.419 222.459 154.583 223.885 154.554 224.612C154.495 226.05 151.039 223.801 151.917 222.947ZM150.211 230.576C151.777 230.176 150.666 228.942 150.405 228.003C150.79 228.406 152.393 229.701 152.553 229.964C154.964 232.852 149.412 232.826 150.211 230.576ZM150.021 227.632C147.145 226.505 149.201 229.863 146.242 226.898C147.877 227.777 149.915 225.577 150.021 227.632ZM101.756 268.266L101.752 265.07C104.478 264.231 103.799 267.755 101.756 268.266ZM101.154 261.732C102.616 261.755 103.466 261.633 103.804 260.07C108.526 260.628 103.13 264.469 101.154 261.732ZM280.786 266.723C279.912 265.987 280.599 265.177 281.165 264.518C282.038 265.254 281.35 266.064 280.786 266.723ZM285.651 262.653C285.073 262.561 283.837 263.002 284.191 261.95C284.769 262.043 286.005 261.602 285.651 262.653ZM293.455 269.317C291.376 269.551 291.376 267.237 293.455 267.471V269.317ZM301.989 269.322C297.034 274.111 297.678 265.146 292.722 265.785C290.246 264.693 290.986 264.679 287.984 264.13C286.195 263.803 285.816 261.589 288.552 262.505L288.922 260.813C292.345 264.388 290.807 260.66 295.725 264.329C296.067 266.043 292.664 265.164 297.242 266.958C298.437 266.239 301.252 266.047 300.268 268.207L301.206 267.473C301.659 267.897 302.362 268.644 301.989 269.322ZM151.095 327.068C146.085 328.104 139.784 324.771 149.139 325.739C151.23 325.733 154.681 325.253 156.672 324.769C158.33 325.75 151.605 327.023 151.095 327.068Z" fill="black"/>
<path d="M155.623 245.641C159.039 248.568 157.342 246.456 157.963 243.905C157.448 244.97 153.326 244.142 155.623 245.641Z" fill="black"/>
<path d="M155.317 242.058C154.371 241.818 154.578 242.534 154.564 243.164C155.51 243.403 155.303 242.687 155.317 242.058Z" fill="black"/>
<path d="M139.432 157.736C139.139 156.792 137.994 156.994 137.163 157.003C137.455 157.947 138.601 157.745 139.432 157.736Z" fill="black"/>
<path d="M93.5587 196.573C113.128 205.502 138.393 196.905 154.399 191.518C170.792 185.999 186.215 178.265 199.366 171.669C204.238 169.225 208.227 167.127 210.92 165.688C217.466 164.92 226.687 162.78 235.565 156.711C240.527 153.318 246.948 148.929 248.372 141.294C248.647 139.817 249.524 135.112 246.891 131.073C242.303 124.037 230.436 124.198 223.361 126.266C213.85 129.045 208.884 136.468 207.361 138.978C201.865 139.87 193.411 141.239 183.073 142.899C154.769 147.443 140.571 149.718 138.297 149.859C114.171 151.353 106.24 146.87 93.6574 154.046C90.5025 155.845 83.5356 159.95 80.4316 168.195C79.6209 170.349 77.1109 177.998 80.8265 185.565C81.421 186.777 84.322 192.359 93.5587 196.573ZM243.824 138.143C241.568 136.818 242.619 134.965 244.452 134.826C247.204 134.617 247.341 140.207 243.824 138.143ZM236.525 130.456C237.98 128.883 234.582 128.94 233.495 128.465C233.198 125.282 243.969 130.406 243.895 131.156C240.861 135.446 236.806 132.702 232.554 131.544C233.33 130.408 235.517 131.545 236.525 130.456ZM232.428 127.217C232.6 127.493 232.015 129.196 230.867 128.998C230.791 128.985 231.159 127.963 230.347 128.232C230.314 128.849 230.118 129.816 229.302 129.759C227.957 127.393 231.809 126.223 232.428 127.217ZM231.384 130.912C231.576 131.84 229.252 131.507 228.78 131.541C228.892 130.803 231.228 130.156 231.384 130.912ZM238.931 134.979C238.443 137.056 235.238 136.248 234.368 135.365C233.687 135.253 227.59 135.998 227.997 134.227C229.528 132.377 237.91 133.868 238.931 134.979ZM227.214 130.272C227.606 130.656 225.388 132.294 225.131 132.05C225.279 131.739 226.907 129.971 227.214 130.272ZM202.798 143.01C202.175 144.572 198.556 143.305 197.162 143.686C197.784 142.123 201.404 143.391 202.798 143.01ZM133.197 156.924C132.692 156.919 129 156.405 128.841 156.256C127.543 154.606 139.498 156.059 133.197 156.924ZM154.376 152.559C155.525 152.888 157.796 151.741 157.028 153.68C157.13 154.392 148.368 152.664 148.128 152.743C148.193 150.748 153.248 152.401 154.376 152.559ZM150.404 155.155C150.404 155.154 151.912 155.154 151.912 155.154C152.265 155.706 150.051 155.707 150.404 155.155ZM149.645 155.517C148.813 155.526 147.669 155.728 147.376 154.785C148.207 154.775 149.352 154.573 149.645 155.517ZM140.945 153.668C140.55 153.97 139.619 153.082 139.81 152.935C140.205 152.633 141.137 153.521 140.945 153.668ZM143.301 156.73C145.881 157.11 148.156 157.875 150.968 158.037C157.714 158.607 139.219 159.551 136.385 157.945C132.117 155.798 141.437 155.903 143.301 156.73ZM130.94 152.545C132.546 153.141 138.402 151.958 137.352 153.301C137.351 153.301 128.085 153.301 128.085 153.301C126.852 152.392 130.56 152.527 130.94 152.545Z" fill="black"/>
</g>
</svg>
