<svg width="947" height="58" viewBox="0 0 947 58" fill="none" xmlns="http://www.w3.org/2000/svg">
<path d="M14.7203 9.76093V47.9209C14.7203 52.0809 17.2003 53.8409 24.1603 53.8409C36.2403 53.8409 38.9603 48.2409 41.2803 41.2009H44.5603L41.8403 56.9609H0.000312626V54.0009C5.36031 53.7609 8.32031 52.3209 8.32031 48.1609V9.76093C8.32031 5.60094 5.36031 4.16094 0.000312626 3.92093V0.960934H22.9603V3.92093C17.6803 4.16094 14.7203 5.60094 14.7203 9.76093ZM70.9291 54.0009V56.9609H47.9691V54.0009C53.3291 53.7609 56.2891 52.3209 56.2891 48.1609V9.76093C56.2891 5.60094 53.3291 4.16094 47.9691 3.92093V0.960934H70.9291V3.92093C65.6491 4.16094 62.6891 5.60094 62.6891 9.76093V48.1609C62.6891 52.3209 65.6491 53.7609 70.9291 54.0009ZM89.0172 48.1609C89.0172 52.3209 91.7372 53.4409 98.8572 54.0009V56.9609H74.2972V54.0009C79.6572 53.7609 82.6172 52.3209 82.6172 48.1609V9.76093C82.6172 5.60094 79.6572 4.16094 74.2972 3.92093V0.960934H116.457V14.7209H113.577C112.137 7.68093 109.657 4.40094 101.977 4.40094H89.0172V26.4009H100.217C104.217 26.4009 106.537 23.6009 106.697 18.8009H109.577V37.6009H106.697C106.537 32.8009 104.217 30.0009 100.217 30.0009H89.0172V48.1609ZM120.703 0.960934H163.023V14.8809H160.143C158.703 7.76094 156.143 4.40094 148.543 4.40094H135.423V26.4009H146.623C150.623 26.4009 152.943 23.6009 153.103 18.8009H155.983V37.6009H153.103C152.943 32.8009 150.623 30.0009 146.623 30.0009H135.423V47.9209C135.423 52.0809 137.663 53.8409 144.943 53.8409C158.703 53.8409 161.263 48.4009 163.743 41.1209H167.023L164.223 56.9609H120.703V54.0009C126.063 53.7609 129.023 52.3209 129.023 48.1609V9.76093C129.023 5.60094 126.063 4.16094 120.703 3.92093V0.960934ZM184.063 0.960934H226.383V14.8809H223.503C222.063 7.76094 219.503 4.40094 211.903 4.40094H198.783V26.4009H209.983C213.983 26.4009 216.303 23.6009 216.463 18.8009H219.343V37.6009H216.463C216.303 32.8009 213.983 30.0009 209.983 30.0009H198.783V47.9209C198.783 52.0809 201.023 53.8409 208.303 53.8409C222.063 53.8409 224.623 48.4009 227.103 41.1209H230.383L227.583 56.9609H184.063V54.0009C189.423 53.7609 192.383 52.3209 192.383 48.1609V9.76093C192.383 5.60094 189.423 4.16094 184.063 3.92093V0.960934ZM248.548 9.76093V47.9209C248.548 52.0809 251.028 53.8409 257.988 53.8409C270.068 53.8409 272.788 48.2409 275.108 41.2009H278.388L275.668 56.9609H233.828V54.0009C239.188 53.7609 242.148 52.3209 242.148 48.1609V9.76093C242.148 5.60094 239.188 4.16094 233.828 3.92093V0.960934H256.788V3.92093C251.508 4.16094 248.548 5.60094 248.548 9.76093ZM281.797 0.960934H324.117V14.8809H321.237C319.797 7.76094 317.237 4.40094 309.637 4.40094H296.517V26.4009H307.717C311.717 26.4009 314.037 23.6009 314.197 18.8009H317.077V37.6009H314.197C314.037 32.8009 311.717 30.0009 307.717 30.0009H296.517V47.9209C296.517 52.0809 298.757 53.8409 306.037 53.8409C319.797 53.8409 322.357 48.4009 324.837 41.1209H328.117L325.317 56.9609H281.797V54.0009C287.157 53.7609 290.117 52.3209 290.117 48.1609V9.76093C290.117 5.60094 287.157 4.16094 281.797 3.92093V0.960934ZM359.982 57.9209H356.702L338.462 10.6409C336.622 6.08093 333.582 4.16094 329.982 3.92093V0.960934H353.022V3.92093C345.502 4.32093 343.262 6.00094 345.182 11.1209L359.582 48.4009L373.662 11.1209C375.502 6.08093 373.342 4.32093 365.902 3.92093V0.960934H386.862V3.92093C383.342 4.16094 380.382 5.92094 378.542 10.5609L359.982 57.9209ZM402.4 0.000936508H408.96L427.04 47.2809C428.88 51.8409 431.92 53.7609 435.52 54.0009V56.9609H412.24V54.0009C420 53.6009 422.16 51.7609 420.24 46.7209L416.24 36.1609H396.4L392.48 46.6409C390.48 51.7609 392.72 53.6009 400.32 54.0009V56.9609H379.2V54.0009C382.72 53.7609 385.76 52.0009 387.52 47.3609L404.08 4.48094L402.4 0.000936508ZM397.84 32.4809H414.8L406.24 10.0809L397.84 32.4809ZM481.378 0.960934V15.5209H478.578C477.138 7.68093 474.578 4.24093 466.978 4.24093H460.178V48.1609C460.178 52.3209 462.898 53.4409 470.018 54.0009V56.9609H443.858V54.0009C450.978 53.4409 453.778 52.3209 453.778 48.1609V4.24093H446.898C439.298 4.24093 436.738 7.68093 435.378 15.5209H432.498V0.960934H481.378ZM484.688 0.960934H527.008V14.8809H524.128C522.688 7.76094 520.128 4.40094 512.528 4.40094H499.408V26.4009H510.608C514.608 26.4009 516.928 23.6009 517.088 18.8009H519.968V37.6009H517.088C516.928 32.8009 514.608 30.0009 510.608 30.0009H499.408V47.9209C499.408 52.0809 501.648 53.8409 508.928 53.8409C522.688 53.8409 525.248 48.4009 527.728 41.1209H531.008L528.208 56.9609H484.688V54.0009C490.048 53.7609 493.008 52.3209 493.008 48.1609V9.76093C493.008 5.60094 490.048 4.16094 484.688 3.92093V0.960934ZM534.453 0.960934H553.653C576.613 0.960934 587.733 12.9609 587.733 26.9609C587.733 45.5209 573.493 56.9609 556.933 56.9609H534.453V54.0009C539.813 53.7609 542.773 52.3209 542.773 48.1609V9.76093C542.773 5.60094 539.813 4.16094 534.453 3.92093V0.960934ZM552.213 4.48094H549.173V47.2009C549.173 52.0009 551.813 53.5209 557.173 53.5209C570.133 53.5209 580.213 45.0409 580.213 28.4809C580.213 15.5209 571.493 4.48094 552.213 4.48094ZM606.25 56.9609V54.0009C611.61 53.7609 614.57 52.3209 614.57 48.1609V9.76093C614.57 5.60094 611.61 4.16094 606.25 3.92093V0.960934H626.17C640.01 0.960934 647.45 5.52094 647.45 14.4809C647.45 21.8409 641.13 26.3209 633.85 27.6009C644.17 28.6409 650.73 33.7609 650.73 41.3609C650.73 50.5609 642.25 56.9609 629.13 56.9609H606.25ZM624.25 4.48094H620.97V26.6409H624.33C634.89 26.6409 640.09 22.4009 640.09 14.8009C640.09 8.16094 634.73 4.48094 624.25 4.48094ZM627.69 30.0009H620.97V47.6009C620.97 52.0009 623.29 53.7609 629.37 53.7609C638.01 53.7609 643.45 49.6009 643.45 41.4409C643.45 35.2009 639.61 30.0009 627.69 30.0009ZM690.508 54.0009V56.9609H664.348V54.0009C671.468 53.4409 674.268 52.3209 674.268 48.1609V33.0409L660.108 10.6409C657.628 6.64094 654.988 4.16094 651.388 3.92093V0.960934H674.428V3.92093C666.908 4.32093 664.508 6.88093 667.228 11.2009L678.668 29.6809L690.108 11.2809C692.748 6.96094 690.348 4.24093 682.908 3.92093V0.960934H703.548V3.92093C700.028 4.16094 697.388 6.64094 694.908 10.5609L680.588 32.9609V48.1609C680.588 52.3209 683.388 53.4409 690.508 54.0009ZM734.408 48.1609C734.408 52.3209 737.128 53.4409 744.248 54.0009V56.9609H719.688V54.0009C725.048 53.7609 728.008 52.3209 728.008 48.1609V9.76093C728.008 5.60094 725.048 4.16094 719.688 3.92093V0.960934H761.848V14.7209H758.968C757.528 7.68093 755.048 4.40094 747.368 4.40094H734.408V26.4009H745.608C749.608 26.4009 751.928 23.6009 752.088 18.8009H754.968V37.6009H752.088C751.928 32.8009 749.608 30.0009 745.608 30.0009H734.408V48.1609ZM780.814 9.76093V47.9209C780.814 52.0809 783.294 53.8409 790.254 53.8409C802.334 53.8409 805.054 48.2409 807.374 41.2009H810.654L807.934 56.9609H766.094V54.0009C771.454 53.7609 774.414 52.3209 774.414 48.1609V9.76093C774.414 5.60094 771.454 4.16094 766.094 3.92093V0.960934H789.054V3.92093C783.774 4.16094 780.814 5.60094 780.814 9.76093ZM866.005 27.8409C866.005 46.1609 853.445 57.7609 840.085 57.7609C825.765 57.7609 814.645 44.9609 814.645 30.0809C814.645 11.7609 827.285 0.160934 840.565 0.160934C854.885 0.160934 866.005 12.9609 866.005 27.8409ZM858.725 30.0009C858.725 17.6809 852.405 4.48094 839.205 4.48094C828.325 4.48094 821.925 14.1609 821.925 27.9209C821.925 40.2409 828.245 53.4409 841.445 53.4409C852.405 53.4409 858.725 43.7609 858.725 30.0009ZM894.775 57.9209H891.895L875.415 10.6409C873.815 6.08093 870.535 4.16094 866.935 3.92093V0.960934H889.895V3.92093C882.295 4.32093 880.215 5.92094 881.895 11.1209L894.535 47.9209L905.335 16.4809L903.575 10.6409C902.215 6.08093 898.695 4.16094 895.095 3.92093V0.960934H917.735V3.92093C910.055 4.32093 908.295 5.92094 909.735 11.1209L920.215 48.0809L933.415 11.1209C935.255 6.16093 933.255 4.32093 925.735 3.92093V0.960934H946.695V3.92093C943.095 4.16094 940.055 5.92094 938.295 10.5609L920.775 57.9209H917.895L907.175 22.5609L894.775 57.9209Z" fill="black"/>
</svg>
