<svg width="151" height="36" viewBox="0 0 151 36" fill="none" xmlns="http://www.w3.org/2000/svg">
<path d="M135.265 28.5339L144.415 7.19531H150.655V35.1503H146.294V12.886L136.651 35.3029H133.534L123.968 13.0409V35.1503H119.684V7.19531H126.114L135.265 28.5339Z" fill="black"/>
<path fill-rule="evenodd" clip-rule="evenodd" d="M49.2832 6.73828C57.4975 6.73828 63.7189 12.9993 63.7189 21.1738L63.7177 21.3652C63.6215 29.446 57.4333 35.6096 49.2832 35.6096C40.9528 35.6096 34.8477 29.3851 34.8477 21.1738C34.8477 13 41.03 6.73829 49.2832 6.73828ZM49.0939 35.1843L49.2832 35.1854C49.2155 35.1854 49.148 35.1848 49.0806 35.1839C49.085 35.184 49.0895 35.1843 49.0939 35.1843ZM49.2832 11.0228C43.4373 11.0228 39.5139 15.5757 39.5139 21.1738L39.5168 21.4406C39.6369 27.0212 43.5258 31.3251 49.2832 31.3251C55.1291 31.3251 59.0527 26.772 59.0527 21.1738C59.0527 15.6128 55.1281 11.0228 49.2832 11.0228ZM59.4386 22.1299C59.4494 21.9923 59.4588 21.8539 59.4649 21.7148L59.4651 21.7107C59.4589 21.8512 59.4495 21.9909 59.4386 22.1299ZM63.2249 19.708C63.2295 19.756 63.2338 19.8041 63.238 19.8523C63.229 19.748 63.2191 19.6441 63.208 19.5406L63.2249 19.708ZM39.5068 18.043C39.495 18.0859 39.4842 18.129 39.4729 18.1721C39.5061 18.046 39.5407 17.9207 39.5781 17.7966L39.5068 18.043ZM45.2303 11.3853C45.0347 11.467 44.843 11.5546 44.6553 11.6479C44.7304 11.6106 44.8061 11.574 44.8825 11.5385C44.9207 11.5208 44.959 11.5034 44.9975 11.4861C45.0744 11.4516 45.1521 11.4179 45.2303 11.3853ZM46.832 10.8712C46.7891 10.8811 46.7463 10.8914 46.7036 10.9018C46.7889 10.881 46.8748 10.8611 46.9613 10.8424L46.832 10.8712ZM48.5375 7.18009C48.4143 7.18595 48.2916 7.1933 48.1695 7.20205C48.1084 7.20642 48.0474 7.21125 47.9866 7.21634C48.1689 7.20108 48.3527 7.18889 48.5375 7.18009Z" fill="black"/>
<path d="M4.55169 30.8276H22.0755V35.1503H0L0 7.19531H4.55169V30.8276Z" fill="black"/>
<path d="M102.474 11.4798H84.912V18.1906H98.7746V22.4751H84.912V30.8658H103.335V35.1502H80.3984V7.19531L102.474 7.19531V11.4798Z" fill="black"/>
<path d="M85.0703 0.854302V3.75869C90.8929 1.78772 93.8912 4.83482 98.5705 3.3807V0.165812C95.7482 2.00179 88.7066 -1.51781 85.0703 0.854302Z" fill="black"/>
</svg>
